<svg width="149" height="65" viewBox="0 0 149 65" fill="none" xmlns="http://www.w3.org/2000/svg">
<path d="M37.557 24.1668H35.6483H25.4001H21.3479V34.0332L10.9235 23.0216L21.3479 11.9806V21.847H23.6383H35.2959H35.6483C41.11 21.6709 45.5147 17.1781 45.5147 11.6576V10.2188C45.5147 4.69829 41.11 0.176186 35.6483 0H35.2959H23.6383H21.3479H7.57599H0V47.4527H6.87125H21.3479H25.4001H35.6189H37.5276C43.6647 47.4527 48.6567 42.4608 48.6567 36.3237V35.2959C48.686 29.1588 43.6941 24.1668 37.557 24.1668Z" fill="#E60000"/>
<path d="M110.792 0C104.772 0 99.8975 4.87448 99.8975 10.8942V11.6576V21.8764V24.1668V34.3856V47.4234H128.821V37.2046H141.331V24.1668H128.821H121.422V34.0332L111.027 23.0216L121.422 11.9806V21.8471H148.231V0H110.792Z" fill="#E60000"/>
<path d="M86.3315 21.8764H95.6693V0H71.8549H67.6264H60.2266C54.5886 0 50.0078 4.58083 50.0078 10.2188V11.6283C50.0078 17.2662 54.5886 21.847 60.2266 21.847H67.6264H70.9739V11.9806L82.0736 22.9923L70.9739 34.0039V24.1668H60.0504H50.0078V47.4527H72.9413H83.6887H86.3021C93.0265 47.4527 98.4883 41.991 98.4883 35.2665V34.092C98.5177 27.3382 93.0559 21.8764 86.3315 21.8764Z" fill="#E60000"/>
<path d="M6.82929 64.7487H10.5544L7.09538 56.2195H6.03107H4.5233H3.45899L0 64.7487H3.72507L4.02071 63.6844H6.54844L6.82929 64.7487ZM4.56764 61.6297L5.27718 58.9985L5.98672 61.6297H4.56764Z" fill="white"/>
<path d="M31.0714 64.7487L29.475 56.2195H28.4107H26.622H25.9125L24.6265 60.9793L23.3404 56.2195H22.6309H20.8571H19.7927L18.1963 64.7487H21.5666L22.1431 60.1811L23.6065 64.7487H25.6464L27.1246 60.1811L27.7011 64.7487H31.0714Z" fill="white"/>
<path d="M36.926 64.7487H40.6511L37.1921 56.2195H36.1277H34.62H33.5557L30.0967 64.7487H33.8218L34.1174 63.6844H36.6451L36.926 64.7487ZM34.6643 61.6297L35.3739 58.9985L36.0834 61.6297H34.6643Z" fill="white"/>
<path d="M14.6486 61.9845V56.2195H11.1748V61.9845V64.7487H14.6486H17.9302V61.9845H14.6486Z" fill="white"/>
<path d="M55.7872 58.5255V56.2195H52.683H49.4014V58.5255V59.3237V61.541V62.4279V64.7487H52.683H55.7872V62.4279H52.683V61.541H55.5211V59.3237H52.683V58.5255H55.7872Z" fill="white"/>
<path d="M74.3684 58.5255V56.2195H71.2642H67.9678V58.5255V59.3237V61.541V62.4279V64.7487H71.2642H74.3684V62.4279H71.2642V61.541H74.1023V59.3237H71.2642V58.5255H74.3684Z" fill="white"/>
<path d="M63.311 56.2195V60.4767L60.3842 56.2195H57.4573H57.1025V64.7487H60.3842V60.4767L63.311 64.7487H66.2378H66.6074V56.2195H63.311Z" fill="white"/>
<path d="M46.4451 62.2504H45.8538C44.893 62.2504 44.1243 61.4818 44.1243 60.5209C44.1243 59.5601 44.893 58.7915 45.8538 58.7915H46.4451C47.1251 58.7915 47.7163 59.1906 47.9972 59.7671V56.3524C47.4946 56.1455 46.9329 56.042 46.3564 56.042H45.1147C42.6313 56.042 40.6357 58.0523 40.6357 60.5209C40.6357 63.0043 42.6461 64.9999 45.1147 64.9999H46.3564C46.9329 64.9999 47.4946 64.8816 47.9972 64.6895V61.2896C47.7163 61.8661 47.1251 62.2504 46.4451 62.2504Z" fill="white"/>
<path d="M76.0392 61.6296C76.0392 61.6296 77.1035 62.5165 78.2565 62.5165C79.4095 62.5165 79.0547 61.9844 79.0547 61.9844C79.0547 61.9844 78.966 61.6296 77.6356 61.4522C76.3052 61.2748 75.4183 60.2105 75.4183 58.9688C75.4183 57.7271 76.4826 56.042 79.4094 56.042C82.3363 56.042 82.6024 56.9289 82.6024 56.9289L81.4937 59.0132C81.4937 59.0132 80.5181 58.3036 79.8086 58.3036C79.099 58.3036 78.8329 58.5697 78.8329 58.8358C78.8329 59.1019 79.8973 59.3679 80.6068 59.5453C81.3163 59.7227 82.6467 59.9888 82.6467 61.7626C82.6467 63.5365 81.3163 64.9556 78.6556 64.9556C75.9948 64.9556 74.8418 63.9799 74.8418 63.9799L76.0392 61.6296Z" fill="white"/>
<path d="M104.352 58.3654V56.0271H101.459H98.4033V58.3654V59.1702V61.4106V62.3132V64.6515H101.459H104.352V62.3132H101.459V61.4106H104.026V59.1702H101.459V58.3654H104.352Z" fill="white"/>
<path d="M130.91 58.3654V56.0271H128.028H124.972V58.3654V59.1702V61.4106V62.3132V64.6515H128.028H130.91V62.3132H128.028V61.4106H130.584V59.1702H128.028V58.3654H130.91Z" fill="white"/>
<path d="M108.702 61.7803V56.0271H105.505V61.7803V64.6515H108.702H111.715V61.7803H108.702Z" fill="white"/>
<path d="M121.296 56.0271H119.556H117.859H116.358V64.6515H119.567V62.1066H121.307C122.764 62.1066 123.95 60.9212 123.95 59.4638V58.6699C123.939 57.2125 122.764 56.0271 121.296 56.0271ZM120.252 59.7466H119.567V58.3762H120.252C120.633 58.3762 120.937 58.6808 120.937 59.0614C120.937 59.4421 120.633 59.7466 120.252 59.7466Z" fill="white"/>
<path d="M140.177 64.6515L137.817 61.106C138.817 60.9864 139.589 60.1381 139.589 59.1158V58.9635C139.589 57.3431 138.273 56.0271 136.653 56.0271H135.283H132.074V61.1278V64.6515H135.272V62.0413L136.707 64.6515H140.177ZM135.272 58.1805H135.728C136.196 58.1805 136.577 58.5611 136.577 59.0288C136.577 59.4964 136.196 59.8771 135.728 59.8771H135.272V58.1805Z" fill="white"/>
<path d="M145.147 56.0271V59.8118V61.2148C145.147 61.7042 144.755 62.0957 144.266 62.0957C143.777 62.0957 143.385 61.7042 143.385 61.2148V59.8118V56.0271H140.253V59.8118V61.3779V61.4976C140.253 63.3464 141.743 64.8364 143.592 64.8364H144.951C146.8 64.8364 148.29 63.3464 148.29 61.4976V61.3779V59.8118V56.0271H145.147Z" fill="white"/>
<path d="M93.0194 56.0271H92.1058H90.2787H88.9736V64.6515H90.2787H92.1058H93.0194C95.4012 64.6515 97.3261 62.7265 97.3261 60.3447C97.3261 57.9521 95.3903 56.0271 93.0194 56.0271ZM92.5191 61.987H92.095V58.6916H92.5191C93.4327 58.6916 94.1613 59.4312 94.1613 60.3339C94.1613 61.2365 93.4327 61.987 92.5191 61.987Z" fill="white"/>
<path d="M143.472 55.1135H144.45L146.212 53.0906H144.45L143.472 55.1135Z" fill="white"/>
<path d="M140.214 40.9338C143.121 40.9338 145.5 43.3123 145.5 46.2194C145.5 49.1265 143.121 51.505 140.214 51.505C137.307 51.505 134.929 49.1265 134.929 46.2194C134.929 43.3123 137.307 40.9338 140.214 40.9338ZM135.81 46.2194C135.81 48.6567 137.748 50.5947 140.156 50.6241C142.593 50.6534 144.59 48.686 144.619 46.2781C144.648 43.8115 142.681 41.8441 140.273 41.8148C137.777 41.7854 135.81 43.7822 135.81 46.2194Z" fill="white"/>
<path d="M139.774 46.6597C139.774 47.247 139.774 47.8343 139.774 48.3922C139.48 48.3922 139.186 48.3922 138.893 48.3922C138.893 46.924 138.893 45.4558 138.893 43.9875C138.922 43.9875 138.951 43.9875 138.981 43.9875C139.539 43.9875 140.097 43.9875 140.654 43.9875C141.33 43.9875 141.917 44.5161 141.976 45.1621C142.035 45.8375 141.594 46.4541 140.919 46.601C140.889 46.601 140.86 46.601 140.831 46.6303C141.212 47.2176 141.623 47.8049 142.005 48.3922C141.976 48.3922 141.946 48.3922 141.946 48.3922C141.712 48.3922 141.447 48.3922 141.212 48.3922C141.154 48.3922 141.124 48.3628 141.095 48.3335C140.743 47.8049 140.39 47.2764 140.038 46.7184C139.92 46.6597 139.862 46.6303 139.774 46.6597ZM139.774 45.7788C140.097 45.7788 140.39 45.7788 140.713 45.7788C140.948 45.7788 141.124 45.5439 141.095 45.3089C141.066 45.074 140.889 44.8978 140.654 44.8978C140.449 44.8978 140.214 44.8978 140.008 44.8978C139.95 44.8978 139.862 44.8978 139.774 44.8978C139.774 45.1915 139.774 45.4851 139.774 45.7788Z" fill="white"/>
</svg>
